<?xml version="1.0" standalone="no"?>
<!DOCTYPE svg PUBLIC "-//W3C//DTD SVG 20010904//EN"
 "http://www.w3.org/TR/2001/REC-SVG-20010904/DTD/svg10.dtd">
<svg version="1.0" xmlns="http://www.w3.org/2000/svg"
 width="314.000000pt" height="314.000000pt" viewBox="0 0 314.000000 314.000000"
 preserveAspectRatio="xMidYMid meet">
<metadata>
Created by potrace 1.11, written by Peter Selinger 2001-2013
</metadata>
<g transform="translate(0.000000,314.000000) scale(0.100000,-0.100000)"
fill="#000000" stroke="none">
<path d="M715 3122 c-150 -56 -259 -153 -322 -287 l-38 -80 0 -135 0 -135 41
-85 c56 -114 146 -203 259 -257 l80 -38 135 0 135 0 85 41 c114 56 203 146
257 259 l38 80 0 135 0 135 -41 85 c-56 114 -146 204 -259 257 -77 36 -85 37
-200 40 -98 3 -129 0 -170 -15z"/>
<path d="M2130 2076 c-142 -41 -272 -154 -337 -291 l-38 -80 0 -135 0 -135 38
-80 c69 -146 210 -262 358 -295 33 -7 96 -11 155 -8 91 4 106 7 184 45 114 54
203 144 257 258 l38 80 0 135 0 135 -41 85 c-56 114 -146 204 -259 257 -76 35
-86 37 -195 40 -72 1 -132 -3 -160 -11z"/>
<path d="M715 1022 c-150 -56 -259 -153 -322 -287 -37 -80 -37 -80 -38 -215
l0 -135 41 -85 c56 -114 146 -203 259 -257 l80 -38 135 0 135 0 85 41 c114 56
203 146 257 259 l38 80 0 135 0 135 -41 85 c-56 114 -146 204 -259 257 -77 36
-85 37 -200 40 -98 3 -129 0 -170 -15z"/>
</g>
</svg>
